PathFileType  4	(X/Y/Z) C:\Users\antoi\Documents\MyRepositories\mobilecap\ResultsAnalysis
DataRate	CameraRate	NumFrames	NumMarkers	Units	OrigDataRate	OrigDataStartFrame	OrigNumFrames
100.0	100.0	5	51	mm	100.0	218	248
Frame#	Time	r_knee			r_shank_antsup			r_ankle			r_calc			r_5meta			r_toe			L_knee			L_shank_antsup			L_ankle			L_calc			L_5meta			L_toe			r_sh2			r_sh3			r_sh4			L_sh2			L_sh3			r_thigh1			r_thigh2			r_thigh3			r_thigh4			r_thigh5			L_thigh1			L_thigh2			L_thigh3			L_thigh4			r.ASIS			r.PSIS			L.ASIS			L.PSIS			C7			R_Shoulder			L_Shoulder			R_Sternum			L_Sternum			R_humerus			R_elbow_med			R_elbow_lat			R_forearm			R_wrist_radius			R_wrist_ulna			L_humerus			L_elbow_med			L_elbow_lat			L_forearm			L_wrist_radius			L_wrist_ulna			R_HJC			L_HJC			R_HJC_reg			L_HJC_reg			
		X1	Y1	Z1	X2	Y2	Z2	X3	Y3	Z3	X4	Y4	Z4	X5	Y5	Z5	X6	Y6	Z6	X7	Y7	Z7	X8	Y8	Z8	X9	Y9	Z9	X10	Y10	Z10	X11	Y11	Z11	X12	Y12	Z12	X13	Y13	Z13	X14	Y14	Z14	X15	Y15	Z15	X16	Y16	Z16	X17	Y17	Z17	X18	Y18	Z18	X19	Y19	Z19	X20	Y20	Z20	X21	Y21	Z21	X22	Y22	Z22	X23	Y23	Z23	X24	Y24	Z24	X25	Y25	Z25	X26	Y26	Z26	X27	Y27	Z27	X28	Y28	Z28	X29	Y29	Z29	X30	Y30	Z30	X31	Y31	Z31	X32	Y32	Z32	X33	Y33	Z33	X34	Y34	Z34	X35	Y35	Z35	X36	Y36	Z36	X37	Y37	Z37	X38	Y38	Z38	X39	Y39	Z39	X40	Y40	Z40	X41	Y41	Z41	X42	Y42	Z42	X43	Y43	Z43	X44	Y44	Z44	X45	Y45	Z45	X46	Y46	Z46	X47	Y47	Z47	X48	Y48	Z48	X49	Y49	Z49	X50	Y50	Z50	X51	Y51	Z51	

218	2.17000000	-138.79402	1048.98041	-466.27193	-120.28930	925.90360	-459.78536	-248.15819	603.00775	-438.56727	-308.43555	597.86145	-496.17989	-162.71784	472.72623	-391.29362	-104.40089	484.53102	-449.50443	-205.61335	1035.75225	-868.22701	-155.19540	935.86721	-862.55641	-214.21600	588.02189	-860.93274	-265.33142	581.83119	-794.21651	-118.54845	455.61177	-894.83938	-63.65187	473.57823	-841.35571	-128.75390	811.40156	-464.09126	-187.50042	929.07166	-420.15675	-192.42563	812.56871	-408.26107	-242.41995	932.96229	-883.41667	-217.36765	814.09228	-906.93100	-52.91811	1283.01485	-509.92666	-50.08687	1170.01582	-511.96962	-77.17934	1146.05482	-454.35524	-137.99382	1276.24364	-435.03225	-132.19008	1159.69557	-441.63537	-132.71380	1288.98940	-890.71967	-120.68850	1152.66671	-878.95163	-244.39549	1277.78539	-900.46085	-230.62881	1140.67427	-885.28818	-87.74920	1546.00380	-548.51803	-288.77519	1608.02385	-616.80446	-112.57006	1537.78872	-813.85167	-298.88481	1610.16142	-713.89365	-154.44820	2100.64486	-691.23890	-124.73559	2105.71916	-574.49118	-101.60703	2111.53869	-800.94200	-32.06091	2030.40850	-662.95508	-17.44099	2031.03576	-702.12470	-75.92019	2176.97727	-497.62049	136.34887	2233.52927	-404.85253	58.06054	2275.78393	-374.94671	15.08273	2314.88314	-532.32221	-3.71924	2339.84894	-634.45730	-5.44463	2379.08248	-625.97473	-51.33281	2156.24656	-920.99964	130.77046	2126.71350	-1070.93825	67.84462	2187.08099	-1082.67573	67.12255	2227.91923	-925.21895	41.42728	2313.07612	-857.34883	45.40252	2340.99801	-871.16621	-183.27803	1478.84592	-574.39002	-202.33899	1462.84446	-786.32571	-173.58942	1470.66694	-579.28442	-191.81082	1474.51963	-754.26392	
219	2.18000000	-137.81242	1036.75788	-466.33242	-119.97414	913.38975	-460.01146	-249.15898	591.32591	-438.92942	-309.63072	586.30620	-496.43270	-164.17950	460.48227	-392.08298	-105.82086	472.16242	-450.32848	-203.11901	1023.34473	-868.95728	-152.80899	923.17759	-862.90030	-213.46070	575.68468	-861.53956	-265.26658	569.67747	-795.46738	-117.89964	442.98380	-894.47310	-63.51770	460.93192	-840.64797	-128.94181	798.94427	-464.21434	-187.17380	916.50267	-420.40532	-192.79236	800.04720	-408.94988	-239.92299	920.67443	-884.54411	-215.27660	801.73411	-907.85579	-52.05224	1270.79534	-510.11579	-49.30399	1157.74552	-512.13764	-76.13823	1133.92901	-454.40338	-136.96092	1264.11420	-435.16988	-131.13463	1147.65496	-441.52202	-130.95884	1276.79097	-890.83343	-118.56416	1140.56278	-879.42970	-242.64531	1265.27618	-900.93750	-228.53212	1128.22836	-886.16868	-87.28656	1533.76273	-548.85670	-288.60565	1595.77461	-616.77630	-112.01995	1525.32718	-813.88014	-298.49749	1597.95202	-714.34970	-155.84333	2088.24014	-692.61246	-126.08547	2093.44722	-576.19637	-103.05543	2099.22364	-802.32397	-33.31949	2018.32094	-664.72184	-18.74609	2018.96229	-703.90854	-77.06211	2165.02511	-499.29541	135.28917	2222.19545	-407.47904	57.02156	2264.22743	-376.97238	12.71322	2303.69708	-533.63794	-7.02865	2327.91473	-635.80382	-8.48651	2367.40201	-627.57076	-53.41611	2144.10184	-921.95839	128.88130	2115.75199	-1072.01292	65.65640	2175.62829	-1083.60856	64.45594	2216.67720	-926.17735	40.58395	2300.29914	-858.79225	45.70029	2327.87173	-871.86852	-182.92886	1466.61609	-574.52368	-201.93114	1450.48336	-786.45464	-173.33965	1458.32022	-579.79362	-191.06435	1462.22119	-754.61773	
220	2.19000000	-137.13106	1023.46941	-466.40497	-119.60741	900.00082	-460.21104	-249.94227	578.57998	-439.19431	-310.60555	573.79496	-496.57322	-165.32836	447.29199	-392.81889	-107.05607	458.80156	-451.19327	-200.57171	1009.91443	-869.78301	-150.40241	909.46153	-863.23737	-212.69705	562.30174	-862.20229	-264.98787	556.78454	-796.79063	-117.44111	429.26950	-893.99108	-63.42008	447.12832	-839.82530	-129.01388	785.50718	-464.44026	-186.75364	903.05352	-420.67941	-192.67496	786.61163	-409.59009	-237.43617	907.41961	-885.78429	-213.10484	788.34684	-908.62427	-51.23311	1257.61753	-510.26439	-48.51656	1144.64919	-512.21824	-75.28199	1120.88756	-454.35879	-136.09162	1251.04405	-435.33807	-130.16232	1134.73046	-441.44349	-129.23876	1263.51560	-890.90928	-116.46646	1127.49357	-879.92960	-240.84660	1251.75187	-901.46391	-226.36824	1114.77039	-886.99210	-86.80195	1520.32568	-549.18051	-288.29863	1582.45278	-616.96625	-111.46998	1511.76338	-813.92538	-298.09217	1584.78179	-714.86338	-157.26128	2074.86972	-693.70580	-127.52981	2080.19178	-577.67256	-104.68126	2086.04536	-803.40876	-34.52173	2005.44467	-666.26228	-19.98085	2006.14333	-705.46005	-78.16285	2152.01690	-501.17097	134.36828	2209.90469	-409.95865	56.04511	2251.56190	-379.08242	10.37557	2290.72103	-535.53554	-10.29391	2314.76747	-637.57808	-11.60022	2354.73619	-629.16680	-55.42515	2131.04553	-922.85207	126.96083	2103.84597	-1073.04707	63.39784	2163.20665	-1084.75010	61.72515	2204.33080	-927.04467	39.41947	2286.66928	-860.05148	45.61343	2313.84681	-872.39003	-182.63539	1453.27229	-574.74345	-201.53472	1437.06724	-786.67809	-172.97037	1444.73937	-580.27228	-190.44242	1448.89449	-754.93063	
221	2.20000000	-136.65817	1009.14921	-466.56603	-119.19090	885.69004	-460.29645	-250.47189	564.67826	-439.44420	-311.38655	560.32690	-496.54300	-166.24033	433.03548	-393.48004	-108.19104	444.41731	-452.04104	-197.95401	995.50831	-870.71104	-147.96038	894.84440	-863.65942	-211.99042	547.95587	-862.90873	-264.53812	543.13078	-798.04739	-117.07884	414.55198	-893.53307	-63.33897	432.30162	-838.86891	-128.96942	771.17750	-464.69596	-186.37170	888.98558	-420.88820	-192.10309	772.16863	-410.36272	-234.88771	893.23973	-887.08944	-210.83402	773.98461	-909.43203	-50.56148	1243.61481	-510.31193	-47.76343	1130.68163	-512.19613	-74.57931	1106.82562	-454.34342	-135.41205	1236.97458	-435.23507	-129.43365	1120.75459	-441.36779	-127.49517	1249.26128	-891.10238	-114.40467	1113.34727	-880.31784	-239.00708	1237.28029	-901.99020	-224.13886	1100.32469	-887.77743	-86.32223	1505.67191	-549.51615	-288.01546	1568.15547	-617.32233	-110.95987	1497.24796	-814.10431	-297.77534	1570.62513	-715.27392	-158.59579	2060.50861	-694.82207	-129.03792	2065.92904	-579.10663	-106.38327	2071.93177	-804.29874	-35.58589	1991.71484	-667.67767	-21.02900	1992.50638	-706.86776	-79.28859	2138.03529	-503.06282	133.53547	2196.53684	-412.35693	55.09043	2237.75855	-381.22204	8.01082	2276.18945	-537.63601	-13.63524	2300.62360	-639.40879	-14.79620	2340.83568	-630.72763	-57.42251	2117.19659	-923.49681	125.09323	2090.98707	-1073.93959	61.08253	2149.86122	-1085.79256	58.92277	2191.07637	-928.07495	37.93155	2272.16453	-861.18726	45.10636	2298.93116	-872.72497	-182.42190	1438.81231	-575.09173	-201.23695	1422.70965	-787.04162	-172.63407	1430.15423	-580.69970	-190.02590	1434.55552	-755.25151	
222	2.21000000	-136.12557	993.99770	-466.58828	-118.72998	870.40659	-460.42782	-250.79492	549.65575	-439.65824	-312.01292	545.88859	-496.42738	-167.05591	417.65876	-394.18395	-109.20952	428.93155	-453.00944	-195.27435	980.11971	-871.50844	-145.46534	879.30731	-864.09559	-211.34920	532.74816	-863.95689	-264.24339	528.53543	-799.26170	-116.75917	398.66684	-892.78257	-63.35960	416.53148	-837.90199	-128.82857	755.98022	-464.92835	-185.90231	874.10420	-421.03260	-191.66145	757.15099	-410.46480	-232.19834	878.17587	-888.41578	-208.55242	758.64950	-910.28715	-50.06267	1228.68874	-510.11235	-47.09238	1115.73782	-512.02830	-74.01335	1091.73493	-454.29821	-134.89082	1221.84521	-435.00897	-128.99101	1105.71050	-441.37381	-125.68936	1234.07729	-891.32578	-112.32992	1098.21437	-880.62021	-237.14340	1221.90205	-902.41986	-221.92924	1084.92879	-888.61487	-85.89701	1490.05452	-549.74292	-287.88433	1553.02077	-617.55159	-110.56147	1481.82360	-814.30182	-297.61445	1555.51370	-715.52285	-159.84942	2045.19383	-696.10328	-130.51877	2050.58181	-580.75733	-108.03390	2056.68309	-805.18292	-36.83730	1976.59822	-669.28165	-22.24298	1977.44148	-708.45680	-80.46578	2123.12578	-504.57423	132.65220	2182.07904	-414.80908	54.16740	2222.99556	-382.93386	5.48254	2261.42018	-538.95740	-17.28184	2285.56194	-640.59748	-18.09188	2325.58099	-632.28304	-59.37177	2102.39070	-924.04170	123.24274	2077.08395	-1074.72059	58.71312	2135.47507	-1086.65965	55.98978	2176.78754	-929.23349	36.07450	2256.76714	-862.15366	44.13975	2283.13086	-872.86171	-182.30276	1423.42661	-575.35808	-201.09772	1407.44645	-787.31911	-172.45678	1414.79134	-580.93769	-189.79117	1419.23276	-755.47315	
